<?xml version="1.0" encoding="UTF-8" standalone="no"?>
<!DOCTYPE svg PUBLIC "-//W3C//DTD SVG 1.1//EN"
 "http://www.w3.org/Graphics/SVG/1.1/DTD/svg11.dtd">
<!-- Generated by graphviz version 2.36.0 (20140111.2315)
 -->
<!-- Title: name Pages: 1 -->
<svg width="571pt" height="290pt"
 viewBox="0.00 0.00 570.50 290.00" xmlns="http://www.w3.org/2000/svg" xmlns:xlink="http://www.w3.org/1999/xlink">
<g id="graph0" class="graph" transform="scale(1 1) rotate(0) translate(4 286)">
<title>name</title>
<polygon fill="white" stroke="none" points="-4,4 -4,-286 566.5,-286 566.5,4 -4,4"/>
<!-- apps_hmi_models_ProfileBound -->
<g id="node1" class="node"><title>apps_hmi_models_ProfileBound</title>
<polygon fill="palegoldenrod" stroke="none" points="8,-91 8,-109 69,-109 69,-91 8,-91"/>
<polygon fill="#698b22" stroke="none" points="8.5,-91 8.5,-109 69.5,-109 69.5,-91 8.5,-91"/>
<text text-anchor="start" x="13.5" y="-98.1" font-family="Helvetica Bold" font-size="8.00" fill="white">ProfileBound</text>
</g>
<!-- apps_mara_models_Profile -->
<g id="node2" class="node"><title>apps_mara_models_Profile</title>
<polygon fill="palegoldenrod" stroke="none" points="69,-9 69,-27 104,-27 104,-9 69,-9"/>
<polygon fill="#698b22" stroke="none" points="69.5,-9 69.5,-27 104.5,-27 104.5,-9 69.5,-9"/>
<text text-anchor="start" x="74.5" y="-16.1" font-family="Helvetica Bold" font-size="8.00" fill="white">Profile</text>
</g>
<!-- apps_hmi_models_ProfileBound&#45;&gt;apps_mara_models_Profile -->
<g id="edge1" class="edge"><title>apps_hmi_models_ProfileBound&#45;&gt;apps_mara_models_Profile</title>
<path fill="none" stroke="black" d="M35.161,-73.672C35.299,-66.974 36.426,-59.957 39.5,-54 43.886,-45.502 51.388,-38.526 59.126,-33.099"/>
<ellipse fill="black" stroke="black" cx="35.3046" cy="-77.8853" rx="4" ry="4"/>
<text text-anchor="middle" x="76.5" y="-57.1" font-family="Helvetica,sans-Serif" font-size="8.00">profile (profilebound)</text>
</g>
<!-- apps_hmi_models_Screen -->
<g id="node3" class="node"><title>apps_hmi_models_Screen</title>
<polygon fill="palegoldenrod" stroke="none" points="191,-255 191,-273 228,-273 228,-255 191,-255"/>
<polygon fill="#698b22" stroke="none" points="191.5,-255 191.5,-273 228.5,-273 228.5,-255 191.5,-255"/>
<text text-anchor="start" x="196.5" y="-262.1" font-family="Helvetica Bold" font-size="8.00" fill="white">Screen</text>
</g>
<!-- apps_hmi_models_Screen&#45;&gt;apps_hmi_models_Screen -->
<g id="edge2" class="edge"><title>apps_hmi_models_Screen&#45;&gt;apps_hmi_models_Screen</title>
<path fill="none" stroke="black" d="M244.81,-270.93C250.56,-269.94 254.5,-267.63 254.5,-264 254.5,-258.84 246.52,-256.35 236.74,-256.51"/>
<ellipse fill="black" stroke="black" cx="240.73" cy="-271.213" rx="4" ry="4"/>
<text text-anchor="middle" x="284" y="-262.1" font-family="Helvetica,sans-Serif" font-size="8.00">parent (children)</text>
</g>
<!-- apps_hmi_models_SVGScreen -->
<g id="node4" class="node"><title>apps_hmi_models_SVGScreen</title>
<polygon fill="palegoldenrod" stroke="none" points="109,-87.5 109,-112.5 162,-112.5 162,-87.5 109,-87.5"/>
<polygon fill="#698b22" stroke="none" points="109.5,-87 109.5,-112 162.5,-112 162.5,-87 109.5,-87"/>
<text text-anchor="start" x="114" y="-102.1" font-family="Helvetica Bold" font-size="8.00" fill="white">SVGScreen</text>
<text text-anchor="start" x="118" y="-94.1" font-family="Helvetica Bold" font-size="8.00" fill="white">&lt;</text>
<text text-anchor="start" x="123" y="-94.1" font-family="Helvetica Italic" font-size="8.00" fill="white">Screen</text>
<text text-anchor="start" x="149" y="-94.1" font-family="Helvetica Bold" font-size="8.00" fill="white">&gt;</text>
</g>
<!-- apps_hmi_models_SVGScreen&#45;&gt;apps_mara_models_Profile -->
<g id="edge3" class="edge"><title>apps_hmi_models_SVGScreen&#45;&gt;apps_mara_models_Profile</title>
<path fill="none" stroke="black" d="M124.53,-74.286C121.25,-67.557 117.46,-60.371 113.5,-54 109.77,-48.003 105.24,-41.796 100.96,-36.304"/>
<ellipse fill="black" stroke="black" cx="126.42" cy="-78.282" rx="4.00002" ry="4.00002"/>
<text text-anchor="middle" x="148.5" y="-57.1" font-family="Helvetica,sans-Serif" font-size="8.00">profile (screens)</text>
</g>
<!-- apps_hmi_models_Color -->
<g id="node5" class="node"><title>apps_hmi_models_Color</title>
<polygon fill="palegoldenrod" stroke="none" points="358,-169.5 358,-194.5 423,-194.5 423,-169.5 358,-169.5"/>
<polygon fill="#698b22" stroke="none" points="358.5,-169 358.5,-194 423.5,-194 423.5,-169 358.5,-169"/>
<text text-anchor="start" x="380.5" y="-184.1" font-family="Helvetica Bold" font-size="8.00" fill="white">Color</text>
<text text-anchor="start" x="363" y="-176.1" font-family="Helvetica Bold" font-size="8.00" fill="white">&lt;</text>
<text text-anchor="start" x="368" y="-176.1" font-family="Helvetica Italic" font-size="8.00" fill="white">ProfileBound</text>
<text text-anchor="start" x="414" y="-176.1" font-family="Helvetica Bold" font-size="8.00" fill="white">&gt;</text>
</g>
<!-- apps_hmi_models_SVGPropertyChangeSet -->
<g id="node6" class="node"><title>apps_hmi_models_SVGPropertyChangeSet</title>
<polygon fill="palegoldenrod" stroke="none" points="340,-251.5 340,-276.5 441,-276.5 441,-251.5 340,-251.5"/>
<polygon fill="#698b22" stroke="none" points="340.5,-251 340.5,-276 441.5,-276 441.5,-251 340.5,-251"/>
<text text-anchor="start" x="345" y="-266.1" font-family="Helvetica Bold" font-size="8.00" fill="white">SVGPropertyChangeSet</text>
<text text-anchor="start" x="363" y="-258.1" font-family="Helvetica Bold" font-size="8.00" fill="white">&lt;</text>
<text text-anchor="start" x="368" y="-258.1" font-family="Helvetica Italic" font-size="8.00" fill="white">ProfileBound</text>
<text text-anchor="start" x="414" y="-258.1" font-family="Helvetica Bold" font-size="8.00" fill="white">&gt;</text>
</g>
<!-- apps_hmi_models_SVGPropertyChangeSet&#45;&gt;apps_hmi_models_Color -->
<g id="edge4" class="edge"><title>apps_hmi_models_SVGPropertyChangeSet&#45;&gt;apps_hmi_models_Color</title>
<path fill="none" stroke="black" d="M390.5,-237.57C390.5,-225.32 390.5,-210.96 390.5,-200.05"/>
<ellipse fill="black" stroke="black" cx="390.5" cy="-241.64" rx="4" ry="4"/>
<text text-anchor="middle" x="414" y="-221.1" font-family="Helvetica,sans-Serif" font-size="8.00">color (colors)</text>
</g>
<!-- apps_hmi_models_SVGElement -->
<g id="node7" class="node"><title>apps_hmi_models_SVGElement</title>
<polygon fill="palegoldenrod" stroke="none" points="106,-173 106,-191 165,-191 165,-173 106,-173"/>
<polygon fill="#698b22" stroke="none" points="106.5,-173 106.5,-191 165.5,-191 165.5,-173 106.5,-173"/>
<text text-anchor="start" x="111.5" y="-180.1" font-family="Helvetica Bold" font-size="8.00" fill="white">SVGElement</text>
</g>
<!-- apps_hmi_models_SVGElement&#45;&gt;apps_hmi_models_SVGScreen -->
<g id="edge5" class="edge"><title>apps_hmi_models_SVGElement&#45;&gt;apps_hmi_models_SVGScreen</title>
<path fill="none" stroke="black" d="M97.785,-158.15C91.791,-151.62 88.663,-144.07 92.5,-136 95.806,-129.05 101.25,-123.02 107.16,-118.02"/>
<ellipse fill="black" stroke="black" cx="101.034" cy="-161.134" rx="4.00002" ry="4.00002"/>
<text text-anchor="middle" x="125" y="-139.1" font-family="Helvetica,sans-Serif" font-size="8.00">screen (elements)</text>
</g>
<!-- apps_hmi_models_SVGElement&#45;&gt;apps_hmi_models_SVGScreen -->
<g id="edge6" class="edge"><title>apps_hmi_models_SVGElement&#45;&gt;apps_hmi_models_SVGScreen</title>
<path fill="none" stroke="black" d="M154.92,-156.37C157.93,-149.92 159.47,-142.85 157.5,-136 155.71,-129.79 152.46,-123.62 149,-118.23"/>
<ellipse fill="black" stroke="black" cx="152.795" cy="-160.136" rx="4.00002" ry="4.00002"/>
<text text-anchor="middle" x="208.5" y="-139.1" font-family="Helvetica,sans-Serif" font-size="8.00">on_click_jump (svgelement)</text>
</g>
<!-- apps_hmi_models_Formula -->
<g id="node8" class="node"><title>apps_hmi_models_Formula</title>
<polygon fill="palegoldenrod" stroke="none" points="115,-255 115,-273 156,-273 156,-255 115,-255"/>
<polygon fill="#698b22" stroke="none" points="115.5,-255 115.5,-273 156.5,-273 156.5,-255 115.5,-255"/>
<text text-anchor="start" x="120" y="-262.1" font-family="Helvetica Bold" font-size="8.00" fill="white">Formula</text>
</g>
<!-- apps_hmi_models_Formula&#45;&gt;apps_hmi_models_SVGElement -->
<g id="edge7" class="edge"><title>apps_hmi_models_Formula&#45;&gt;apps_hmi_models_SVGElement</title>
<path fill="none" stroke="black" d="M135.5,-237.57C135.5,-225.32 135.5,-210.96 135.5,-200.05"/>
<ellipse fill="black" stroke="black" cx="135.5" cy="-241.64" rx="4" ry="4"/>
<text text-anchor="middle" x="163" y="-221.1" font-family="Helvetica,sans-Serif" font-size="8.00">target (formula)</text>
</g>
<!-- apps_hmi_models_UserProfile -->
<g id="node9" class="node"><title>apps_hmi_models_UserProfile</title>
<polygon fill="palegoldenrod" stroke="none" points="475,-255 475,-273 528,-273 528,-255 475,-255"/>
<polygon fill="#698b22" stroke="none" points="475.5,-255 475.5,-273 528.5,-273 528.5,-255 475.5,-255"/>
<text text-anchor="start" x="480.5" y="-262.1" font-family="Helvetica Bold" font-size="8.00" fill="white">UserProfile</text>
</g>
<!-- django_contrib_auth_models_User -->
<g id="node10" class="node"><title>django_contrib_auth_models_User</title>
<polygon fill="palegoldenrod" stroke="none" points="488,-173 488,-191 515,-191 515,-173 488,-173"/>
<polygon fill="#698b22" stroke="none" points="488.5,-173 488.5,-191 515.5,-191 515.5,-173 488.5,-173"/>
<text text-anchor="start" x="493" y="-180.1" font-family="Helvetica Bold" font-size="8.00" fill="white">User</text>
</g>
<!-- apps_hmi_models_UserProfile&#45;&gt;django_contrib_auth_models_User -->
<g id="edge8" class="edge"><title>apps_hmi_models_UserProfile&#45;&gt;django_contrib_auth_models_User</title>
<path fill="none" stroke="black" d="M501.5,-237.57C501.5,-225.32 501.5,-210.96 501.5,-200.05"/>
<ellipse fill="black" stroke="black" cx="501.5" cy="-241.64" rx="4" ry="4"/>
<text text-anchor="middle" x="532" y="-221.1" font-family="Helvetica,sans-Serif" font-size="8.00">user (userprofile)</text>
</g>
</g>
</svg>
