<?xml version="1.0" encoding="UTF-8" standalone="no"?>
<!DOCTYPE svg PUBLIC "-//W3C//DTD SVG 1.1//EN"
 "http://www.w3.org/Graphics/SVG/1.1/DTD/svg11.dtd">
<!-- Generated by graphviz version 2.36.0 (20140111.2315)
 -->
<!-- Title: name Pages: 1 -->
<svg width="600pt" height="290pt"
 viewBox="0.00 0.00 599.50 290.00" xmlns="http://www.w3.org/2000/svg" xmlns:xlink="http://www.w3.org/1999/xlink">
<g id="graph0" class="graph" transform="scale(1 1) rotate(0) translate(4 286)">
<title>name</title>
<polygon fill="white" stroke="none" points="-4,4 -4,-286 595.5,-286 595.5,4 -4,4"/>
<!-- apps_mara_models_GenericEvent -->
<g id="node1" class="node"><title>apps_mara_models_GenericEvent</title>
<polygon fill="palegoldenrod" stroke="none" points="8,-255 8,-273 69,-273 69,-255 8,-255"/>
<polygon fill="#698b22" stroke="none" points="8.5,-255 8.5,-273 69.5,-273 69.5,-255 8.5,-255"/>
<text text-anchor="start" x="13" y="-262.1" font-family="Helvetica Bold" font-size="8.00" fill="white">GenericEvent</text>
</g>
<!-- django_contrib_auth_models_User -->
<g id="node2" class="node"><title>django_contrib_auth_models_User</title>
<polygon fill="palegoldenrod" stroke="none" points="25,-173 25,-191 52,-191 52,-173 25,-173"/>
<polygon fill="#698b22" stroke="none" points="25.5,-173 25.5,-191 52.5,-191 52.5,-173 25.5,-173"/>
<text text-anchor="start" x="30" y="-180.1" font-family="Helvetica Bold" font-size="8.00" fill="white">User</text>
</g>
<!-- apps_mara_models_GenericEvent&#45;&gt;django_contrib_auth_models_User -->
<g id="edge1" class="edge"><title>apps_mara_models_GenericEvent&#45;&gt;django_contrib_auth_models_User</title>
<path fill="none" stroke="black" d="M38.5,-237.57C38.5,-225.32 38.5,-210.96 38.5,-200.05"/>
<ellipse fill="black" stroke="black" cx="38.5" cy="-241.64" rx="4" ry="4"/>
<text text-anchor="middle" x="73" y="-221.1" font-family="Helvetica,sans-Serif" font-size="8.00">user (genericevent)</text>
</g>
<!-- apps_mara_models_MV -->
<g id="node3" class="node"><title>apps_mara_models_MV</title>
<polygon fill="palegoldenrod" stroke="none" points="119,-255 119,-273 142,-273 142,-255 119,-255"/>
<polygon fill="#698b22" stroke="none" points="119.5,-255 119.5,-273 142.5,-273 142.5,-255 119.5,-255"/>
<text text-anchor="start" x="124.5" y="-262.1" font-family="Helvetica Bold" font-size="8.00" fill="white">MV</text>
</g>
<!-- apps_mara_models_IED -->
<g id="node4" class="node"><title>apps_mara_models_IED</title>
<polygon fill="palegoldenrod" stroke="none" points="163,-173 163,-191 186,-191 186,-173 163,-173"/>
<polygon fill="#698b22" stroke="none" points="163.5,-173 163.5,-191 186.5,-191 186.5,-173 163.5,-173"/>
<text text-anchor="start" x="168" y="-180.1" font-family="Helvetica Bold" font-size="8.00" fill="white">IED</text>
</g>
<!-- apps_mara_models_MV&#45;&gt;apps_mara_models_IED -->
<g id="edge2" class="edge"><title>apps_mara_models_MV&#45;&gt;apps_mara_models_IED</title>
<path fill="none" stroke="black" d="M143.91,-238.62C150.77,-226.15 158.95,-211.28 165.12,-200.05"/>
<ellipse fill="black" stroke="black" cx="141.977" cy="-242.135" rx="4.00002" ry="4.00002"/>
<text text-anchor="middle" x="170" y="-221.1" font-family="Helvetica,sans-Serif" font-size="8.00">ied (mv)</text>
</g>
<!-- apps_mara_models_COMaster -->
<g id="node5" class="node"><title>apps_mara_models_COMaster</title>
<polygon fill="palegoldenrod" stroke="none" points="151,-91 151,-109 198,-109 198,-91 151,-91"/>
<polygon fill="#698b22" stroke="none" points="151.5,-91 151.5,-109 198.5,-109 198.5,-91 151.5,-91"/>
<text text-anchor="start" x="156" y="-98.1" font-family="Helvetica Bold" font-size="8.00" fill="white">COMaster</text>
</g>
<!-- apps_mara_models_IED&#45;&gt;apps_mara_models_COMaster -->
<g id="edge3" class="edge"><title>apps_mara_models_IED&#45;&gt;apps_mara_models_COMaster</title>
<path fill="none" stroke="black" d="M174.5,-155.57C174.5,-143.32 174.5,-128.96 174.5,-118.05"/>
<ellipse fill="black" stroke="black" cx="174.5" cy="-159.64" rx="4" ry="4"/>
<text text-anchor="middle" x="204.5" y="-139.1" font-family="Helvetica,sans-Serif" font-size="8.00">co_master (ieds)</text>
</g>
<!-- apps_mara_models_Profile -->
<g id="node6" class="node"><title>apps_mara_models_Profile</title>
<polygon fill="palegoldenrod" stroke="none" points="295,-9 295,-27 330,-27 330,-9 295,-9"/>
<polygon fill="#698b22" stroke="none" points="295.5,-9 295.5,-27 330.5,-27 330.5,-9 295.5,-9"/>
<text text-anchor="start" x="300.5" y="-16.1" font-family="Helvetica Bold" font-size="8.00" fill="white">Profile</text>
</g>
<!-- apps_mara_models_COMaster&#45;&gt;apps_mara_models_Profile -->
<g id="edge4" class="edge"><title>apps_mara_models_COMaster&#45;&gt;apps_mara_models_Profile</title>
<path fill="none" stroke="black" d="M179.38,-74.144C181.91,-66.807 185.73,-59.326 191.5,-54 217.29,-30.189 258.3,-22.478 285.31,-20.037"/>
<ellipse fill="black" stroke="black" cx="178.228" cy="-78.0985" rx="4.00001" ry="4.00001"/>
<text text-anchor="middle" x="225" y="-57.1" font-family="Helvetica,sans-Serif" font-size="8.00">profile (comasters)</text>
</g>
<!-- apps_mara_models_SV -->
<g id="node7" class="node"><title>apps_mara_models_SV</title>
<polygon fill="palegoldenrod" stroke="none" points="290,-251.5 290,-276.5 323,-276.5 323,-251.5 290,-251.5"/>
<polygon fill="#698b22" stroke="none" points="290.5,-251 290.5,-276 323.5,-276 323.5,-251 290.5,-251"/>
<text text-anchor="start" x="301.5" y="-266.1" font-family="Helvetica Bold" font-size="8.00" fill="white">SV</text>
<text text-anchor="start" x="295.5" y="-258.1" font-family="Helvetica Bold" font-size="8.00" fill="white">&lt;</text>
<text text-anchor="start" x="300.5" y="-258.1" font-family="Helvetica Italic" font-size="8.00" fill="white">MV</text>
<text text-anchor="start" x="313.5" y="-258.1" font-family="Helvetica Bold" font-size="8.00" fill="white">&gt;</text>
</g>
<!-- apps_mara_models_DI -->
<g id="node8" class="node"><title>apps_mara_models_DI</title>
<polygon fill="palegoldenrod" stroke="none" points="362,-169.5 362,-194.5 395,-194.5 395,-169.5 362,-169.5"/>
<polygon fill="#698b22" stroke="none" points="362.5,-169 362.5,-194 395.5,-194 395.5,-169 362.5,-169"/>
<text text-anchor="start" x="374.5" y="-184.1" font-family="Helvetica Bold" font-size="8.00" fill="white">DI</text>
<text text-anchor="start" x="367.5" y="-176.1" font-family="Helvetica Bold" font-size="8.00" fill="white">&lt;</text>
<text text-anchor="start" x="372.5" y="-176.1" font-family="Helvetica Italic" font-size="8.00" fill="white">MV</text>
<text text-anchor="start" x="385.5" y="-176.1" font-family="Helvetica Bold" font-size="8.00" fill="white">&gt;</text>
</g>
<!-- apps_mara_models_Event -->
<g id="node9" class="node"><title>apps_mara_models_Event</title>
<polygon fill="palegoldenrod" stroke="none" points="363,-255 363,-273 394,-273 394,-255 363,-255"/>
<polygon fill="#698b22" stroke="none" points="363.5,-255 363.5,-273 394.5,-273 394.5,-255 363.5,-255"/>
<text text-anchor="start" x="368" y="-262.1" font-family="Helvetica Bold" font-size="8.00" fill="white">Event</text>
</g>
<!-- apps_mara_models_Event&#45;&gt;apps_mara_models_DI -->
<g id="edge5" class="edge"><title>apps_mara_models_Event&#45;&gt;apps_mara_models_DI</title>
<path fill="none" stroke="black" d="M378.5,-237.57C378.5,-225.32 378.5,-210.96 378.5,-200.05"/>
<ellipse fill="black" stroke="black" cx="378.5" cy="-241.64" rx="4" ry="4"/>
<text text-anchor="middle" x="397.5" y="-221.1" font-family="Helvetica,sans-Serif" font-size="8.00">di (events)</text>
</g>
<!-- apps_mara_models_EventText -->
<g id="node10" class="node"><title>apps_mara_models_EventText</title>
<polygon fill="palegoldenrod" stroke="none" points="240,-91 240,-109 289,-109 289,-91 240,-91"/>
<polygon fill="#698b22" stroke="none" points="240.5,-91 240.5,-109 289.5,-109 289.5,-91 240.5,-91"/>
<text text-anchor="start" x="245.5" y="-98.1" font-family="Helvetica Bold" font-size="8.00" fill="white">EventText</text>
</g>
<!-- apps_mara_models_EventText&#45;&gt;apps_mara_models_Profile -->
<g id="edge6" class="edge"><title>apps_mara_models_EventText&#45;&gt;apps_mara_models_Profile</title>
<path fill="none" stroke="black" d="M261.16,-73.672C261.3,-66.974 262.43,-59.957 265.5,-54 269.89,-45.502 277.39,-38.526 285.13,-33.099"/>
<ellipse fill="black" stroke="black" cx="261.304" cy="-77.8853" rx="4" ry="4"/>
<text text-anchor="middle" x="302" y="-57.1" font-family="Helvetica,sans-Serif" font-size="8.00">profile (event_kinds)</text>
</g>
<!-- apps_mara_models_EventDescription -->
<g id="node11" class="node"><title>apps_mara_models_EventDescription</title>
<polygon fill="palegoldenrod" stroke="none" points="323,-91 323,-109 398,-109 398,-91 323,-91"/>
<polygon fill="#698b22" stroke="none" points="323.5,-91 323.5,-109 398.5,-109 398.5,-91 323.5,-91"/>
<text text-anchor="start" x="328" y="-98.1" font-family="Helvetica Bold" font-size="8.00" fill="white">EventDescription</text>
</g>
<!-- apps_mara_models_EventDescription&#45;&gt;apps_mara_models_Profile -->
<g id="edge7" class="edge"><title>apps_mara_models_EventDescription&#45;&gt;apps_mara_models_Profile</title>
<path fill="none" stroke="black" d="M349.45,-74.333C346.17,-67.604 342.4,-60.407 338.5,-54 334.8,-47.922 330.31,-41.589 326.11,-36.007"/>
<ellipse fill="black" stroke="black" cx="351.345" cy="-78.3263" rx="4.00002" ry="4.00002"/>
<text text-anchor="middle" x="388.5" y="-57.1" font-family="Helvetica,sans-Serif" font-size="8.00">profile (eventdescription)</text>
</g>
<!-- apps_mara_models_ComEventKind -->
<g id="node12" class="node"><title>apps_mara_models_ComEventKind</title>
<polygon fill="palegoldenrod" stroke="none" points="432,-255 432,-273 499,-273 499,-255 432,-255"/>
<polygon fill="#698b22" stroke="none" points="432.5,-255 432.5,-273 499.5,-273 499.5,-255 432.5,-255"/>
<text text-anchor="start" x="437" y="-262.1" font-family="Helvetica Bold" font-size="8.00" fill="white">ComEventKind</text>
</g>
<!-- apps_mara_models_ComEvent -->
<g id="node13" class="node"><title>apps_mara_models_ComEvent</title>
<polygon fill="palegoldenrod" stroke="none" points="184,-251.5 184,-276.5 253,-276.5 253,-251.5 184,-251.5"/>
<polygon fill="#698b22" stroke="none" points="184.5,-251 184.5,-276 253.5,-276 253.5,-251 184.5,-251"/>
<text text-anchor="start" x="199" y="-266.1" font-family="Helvetica Bold" font-size="8.00" fill="white">ComEvent</text>
<text text-anchor="start" x="189.5" y="-258.1" font-family="Helvetica Bold" font-size="8.00" fill="white">&lt;</text>
<text text-anchor="start" x="194.5" y="-258.1" font-family="Helvetica Italic" font-size="8.00" fill="white">GenericEvent</text>
<text text-anchor="start" x="243.5" y="-258.1" font-family="Helvetica Bold" font-size="8.00" fill="white">&gt;</text>
</g>
<!-- apps_mara_models_ComEvent&#45;&gt;apps_mara_models_IED -->
<g id="edge8" class="edge"><title>apps_mara_models_ComEvent&#45;&gt;apps_mara_models_IED</title>
<path fill="none" stroke="black" d="M205.09,-238.62C198.23,-226.15 190.05,-211.28 183.88,-200.05"/>
<ellipse fill="black" stroke="black" cx="207.023" cy="-242.135" rx="4.00002" ry="4.00002"/>
<text text-anchor="middle" x="226" y="-221.1" font-family="Helvetica,sans-Serif" font-size="8.00">ied (comevent)</text>
</g>
<!-- apps_mara_models_AI -->
<g id="node14" class="node"><title>apps_mara_models_AI</title>
<polygon fill="palegoldenrod" stroke="none" points="536,-169.5 536,-194.5 569,-194.5 569,-169.5 536,-169.5"/>
<polygon fill="#698b22" stroke="none" points="536.5,-169 536.5,-194 569.5,-194 569.5,-169 536.5,-169"/>
<text text-anchor="start" x="548.5" y="-184.1" font-family="Helvetica Bold" font-size="8.00" fill="white">AI</text>
<text text-anchor="start" x="541.5" y="-176.1" font-family="Helvetica Bold" font-size="8.00" fill="white">&lt;</text>
<text text-anchor="start" x="546.5" y="-176.1" font-family="Helvetica Italic" font-size="8.00" fill="white">MV</text>
<text text-anchor="start" x="559.5" y="-176.1" font-family="Helvetica Bold" font-size="8.00" fill="white">&gt;</text>
</g>
<!-- apps_mara_models_Energy -->
<g id="node15" class="node"><title>apps_mara_models_Energy</title>
<polygon fill="palegoldenrod" stroke="none" points="534,-255 534,-273 571,-273 571,-255 534,-255"/>
<polygon fill="#698b22" stroke="none" points="534.5,-255 534.5,-273 571.5,-273 571.5,-255 534.5,-255"/>
<text text-anchor="start" x="539" y="-262.1" font-family="Helvetica Bold" font-size="8.00" fill="white">Energy</text>
</g>
<!-- apps_mara_models_Energy&#45;&gt;apps_mara_models_AI -->
<g id="edge9" class="edge"><title>apps_mara_models_Energy&#45;&gt;apps_mara_models_AI</title>
<path fill="none" stroke="black" d="M552.5,-237.57C552.5,-225.32 552.5,-210.96 552.5,-200.05"/>
<ellipse fill="black" stroke="black" cx="552.5" cy="-241.64" rx="4" ry="4"/>
<text text-anchor="middle" x="572" y="-221.1" font-family="Helvetica,sans-Serif" font-size="8.00">ai (energy)</text>
</g>
<!-- apps_mara_models_Action -->
<g id="node16" class="node"><title>apps_mara_models_Action</title>
<polygon fill="palegoldenrod" stroke="none" points="454,-91 454,-109 489,-109 489,-91 454,-91"/>
<polygon fill="#698b22" stroke="none" points="454.5,-91 454.5,-109 489.5,-109 489.5,-91 454.5,-91"/>
<text text-anchor="start" x="459.5" y="-98.1" font-family="Helvetica Bold" font-size="8.00" fill="white">Action</text>
</g>
<!-- apps_mara_models_Action&#45;&gt;apps_mara_models_Profile -->
<g id="edge10" class="edge"><title>apps_mara_models_Action&#45;&gt;apps_mara_models_Profile</title>
<path fill="none" stroke="black" d="M457.16,-74.924C451.56,-67.28 444.55,-59.416 436.5,-54 406.99,-34.14 366.31,-25.449 339.71,-21.713"/>
<ellipse fill="black" stroke="black" cx="459.617" cy="-78.5064" rx="4.00002" ry="4.00002"/>
<text text-anchor="middle" x="473" y="-57.1" font-family="Helvetica,sans-Serif" font-size="8.00">profile (action)</text>
</g>
</g>
</svg>
